<?xml version="1.0" encoding="iso-8859-1"?>
<!-- Generator: Adobe Illustrator 16.0.0, SVG Export Plug-In . SVG Version: 6.00 Build 0)  -->
<!DOCTYPE svg PUBLIC "-//W3C//DTD SVG 1.1//EN" "http://www.w3.org/Graphics/SVG/1.1/DTD/svg11.dtd">
<svg version="1.1" id="Layer_1" xmlns="http://www.w3.org/2000/svg" xmlns:xlink="http://www.w3.org/1999/xlink" x="0px" y="0px"
	 width="64.005px" height="64.006px" viewBox="0 0 64.005 64.006" style="enable-background:new 0 0 64.005 64.006;"
	 xml:space="preserve">
<g id="Body_5_">
	<g>
		<path style="fill:#666666;" d="M62.844,17.984L46.022,1.162c-1.549-1.549-4.06-1.549-5.608,0L1.161,40.415
			c-1.548,1.549-1.548,4.06,0,5.607l16.823,16.822c1.548,1.549,4.059,1.549,5.607,0l39.253-39.253
			C64.392,22.044,64.392,19.533,62.844,17.984z"/>
	</g>
</g>
<g id="Head_1_">
	<g>
		<path style="fill:#CCCCCC;" d="M60.788,6.109l-2.893-2.893c-1.599-1.598-4.188-1.598-5.786,0l-2.894,2.893
			c-1.598,1.598-1.598,4.188,0,5.786l2.894,2.894c1.598,1.597,4.188,1.597,5.786,0l2.893-2.894
			C62.385,10.298,62.385,7.707,60.788,6.109z"/>
	</g>
</g>
<g id="Shape">
	<g>
		<path style="fill:#FFA769;" d="M62.844,17.984L46.022,1.162c-1.549-1.549-4.06-1.549-5.608,0l-9.253,9.253l22.431,22.431
			l9.253-9.254C64.392,22.044,64.392,19.533,62.844,17.984z"/>
	</g>
</g>
<g id="Flash">
	<g>
		<path style="fill:#FFA769;" d="M33.974,35.487c-0.115-0.274-0.378-0.452-0.668-0.452l-5.632,0.749l1.977-8.831
			c0.075-0.335-0.08-0.68-0.376-0.836c-0.294-0.156-0.657-0.086-0.878,0.171L18.215,39.789c-0.189,0.22-0.235,0.535-0.117,0.804
			c0.117,0.269,0.377,0.441,0.662,0.441l5.562-0.749l-1.893,8.779c-0.1,0.333,0.037,0.693,0.329,0.868
			c0.114,0.068,0.24,0.103,0.365,0.103c0.196,0,0.389-0.082,0.53-0.236l10.183-13.5C34.035,36.08,34.088,35.762,33.974,35.487z"/>
	</g>
</g>
<g>
</g>
<g>
</g>
<g>
</g>
<g>
</g>
<g>
</g>
<g>
</g>
<g>
</g>
<g>
</g>
<g>
</g>
<g>
</g>
<g>
</g>
<g>
</g>
<g>
</g>
<g>
</g>
<g>
</g>
</svg>
