<?xml version="1.0" encoding="iso-8859-1"?>
<!-- Generator: Adobe Illustrator 16.0.0, SVG Export Plug-In . SVG Version: 6.00 Build 0)  -->
<!DOCTYPE svg PUBLIC "-//W3C//DTD SVG 1.1//EN" "http://www.w3.org/Graphics/SVG/1.1/DTD/svg11.dtd">
<svg version="1.1" id="Layer_1" xmlns="http://www.w3.org/2000/svg" xmlns:xlink="http://www.w3.org/1999/xlink" x="0px" y="0px"
	 width="64px" height="60px" viewBox="0 0 64 60" style="enable-background:new 0 0 64 60;" xml:space="preserve">
<g id="Legs_1_">
	<g>
		<path style="fill-rule:evenodd;clip-rule:evenodd;fill:#735538;" d="M13,47.999c-1.657,0-3,1.344-3,3.001v5.999
			C10,58.656,11.343,60,13,60c1.656,0,3-1.344,3-3.001V51C16,49.343,14.656,47.999,13,47.999z M51,47.999c-1.657,0-3,1.344-3,3.001
			v5.999C48,58.656,49.343,60,51,60c1.656,0,3-1.344,3-3.001V51C54,49.343,52.656,47.999,51,47.999z"/>
	</g>
</g>
<g id="Backrest">
	<g>
		<path style="fill:#A67C52;" d="M32,0C10,0,6,4,6,9.999C6,20,10,20,10,45.999h44C54,20,58,20,58,9.999C58,4,52,0,32,0z"/>
	</g>
</g>
<g id="Backrest_1_">
	<g>
		<path style="fill-rule:evenodd;clip-rule:evenodd;fill:#CCC2B8;" d="M54,9.999C54,5.999,46,4,32,4S10,5.999,10,9.999
			c0,5.411,3.251,5.952,3.891,28H12v8h2h36h2v-8h-1.891C50.749,15.951,54,15.41,54,9.999z"/>
	</g>
</g>
<g id="Nails">
	<g>
		<path style="fill-rule:evenodd;clip-rule:evenodd;fill:#B3AAA1;" d="M32,13.999c-1.104,0-2,0.896-2,2.001c0,1.104,0.896,2,2,2
			s2-0.896,2-2C34,14.895,33.104,13.999,32,13.999z M38,8c-1.104,0-2,0.895-2,1.999C36,11.104,36.896,12,38,12s2-0.896,2-2.001
			C40,8.895,39.104,8,38,8z M26,20c-1.104,0-2,0.895-2,2c0,1.104,0.896,2,2,2s2-0.896,2-2C28,20.895,27.104,20,26,20z M38,20
			c-1.104,0-2,0.895-2,2c0,1.104,0.896,2,2,2s2-0.896,2-2C40,20.895,39.104,20,38,20z M44,18c1.104,0,2-0.896,2-2
			c0-1.105-0.896-2.001-2-2.001S42,14.895,42,16C42,17.104,42.896,18,44,18z M20,26c-1.104,0-2,0.895-2,2c0,1.104,0.896,2,2,2
			s2-0.896,2-2C22,26.895,21.104,26,20,26z M32,26c-1.104,0-2,0.895-2,2c0,1.104,0.896,2,2,2s2-0.896,2-2C34,26.895,33.104,26,32,26
			z M44,26c-1.104,0-2,0.895-2,2c0,1.104,0.896,2,2,2s2-0.896,2-2C46,26.895,45.104,26,44,26z M26,8c-1.104,0-2,0.895-2,1.999
			C24,11.104,24.896,12,26,12s2-0.896,2-2.001C28,8.895,27.104,8,26,8z M20,13.999c-1.104,0-2,0.896-2,2.001c0,1.104,0.896,2,2,2
			s2-0.896,2-2C22,14.895,21.104,13.999,20,13.999z"/>
	</g>
</g>
<g id="Seat">
	<g>
		<path style="fill:#E6DACF;" d="M50,33.999H14c-1.104,0-2,0.896-2,2.001v1.999h40V36C52,34.895,51.104,33.999,50,33.999z"/>
	</g>
</g>
<g id="Arms">
	<g>
		<path style="fill-rule:evenodd;clip-rule:evenodd;fill:#A67C52;" d="M58,24c-3.314,0-6,2.686-6,6v7.999c0,4-2,8-4,8H16
			c-2,0-4-4-4-8V30c0-3.314-2.687-6-6-6c-3.314,0-6,2.686-6,6c0,6,6,6,6,7.999c0,0,0,18,6,18h4h32h4c6,0,6-18,6-18
			C58,36,64,36,64,30C64,26.686,61.313,24,58,24z"/>
	</g>
</g>
<g>
</g>
<g>
</g>
<g>
</g>
<g>
</g>
<g>
</g>
<g>
</g>
<g>
</g>
<g>
</g>
<g>
</g>
<g>
</g>
<g>
</g>
<g>
</g>
<g>
</g>
<g>
</g>
<g>
</g>
</svg>
