<?xml version="1.0" encoding="iso-8859-1"?>
<!-- Generator: Adobe Illustrator 16.0.0, SVG Export Plug-In . SVG Version: 6.00 Build 0)  -->
<!DOCTYPE svg PUBLIC "-//W3C//DTD SVG 1.1//EN" "http://www.w3.org/Graphics/SVG/1.1/DTD/svg11.dtd">
<svg version="1.1" id="Layer_1" xmlns="http://www.w3.org/2000/svg" xmlns:xlink="http://www.w3.org/1999/xlink" x="0px" y="0px"
	 width="64px" height="64.026px" viewBox="0 0 64 64.026" style="enable-background:new 0 0 64 64.026;" xml:space="preserve">
<g id="Ears">
	<g>
		<path style="fill-rule:evenodd;clip-rule:evenodd;fill:#75A64B;" d="M8.81,5.056c-2.688,1.817-3.608,5.841-2.057,8.987
			c1.552,3.147,6.861,8.023,9.55,6.207c2.688-1.817,1.735-9.64,0.184-12.786C14.934,4.317,11.497,3.239,8.81,5.056z M40.311,0.009
			c-3.312,0.18-6.146,3.099-6.333,6.518c-0.186,3.42,2.123,10.172,5.434,9.991c3.312-0.18,6.371-7.226,6.558-10.645
			C46.154,2.454,43.621-0.172,40.311,0.009z"/>
	</g>
</g>
<g id="Head_2_">
	<g>
		<ellipse style="fill:#88C057;" cx="32" cy="37.188" rx="32" ry="26.839"/>
	</g>
</g>
<g id="Mouth">
	<g>
		<path style="fill:#638C3F;" d="M32,47.51c-8.837,0-16-1.356-16,2.064s7.163,6.193,16,6.193c8.836,0,16-2.772,16-6.193
			S40.836,47.51,32,47.51z"/>
	</g>
</g>
<g id="Eye_balls">
	<g>
		<path style="fill-rule:evenodd;clip-rule:evenodd;fill:#FFFFFF;" d="M12,26.864c-3.313,0-6,2.773-6,6.193
			c0,3.421,2.687,6.194,6,6.194s6-2.773,6-6.194C18,29.638,15.313,26.864,12,26.864z M52,26.864c-3.313,0-6,2.773-6,6.193
			c0,3.421,2.687,6.194,6,6.194s6-2.773,6-6.194C58,29.638,55.313,26.864,52,26.864z"/>
	</g>
</g>
<g id="Eyes_1_">
	<g>
		<path style="fill-rule:evenodd;clip-rule:evenodd;fill:#4D4D4D;" d="M14,30.994c-1.104,0-2,0.924-2,2.063
			c0,1.141,0.896,2.065,2,2.065s2-0.925,2-2.065C16,31.918,15.104,30.994,14,30.994z M54,30.994c-1.104,0-2,0.924-2,2.063
			c0,1.141,0.896,2.065,2,2.065s2-0.925,2-2.065C56,31.918,55.104,30.994,54,30.994z"/>
	</g>
</g>
<g id="Nose">
	<g>
		<ellipse style="fill:#ABF26D;" cx="32" cy="39.251" rx="14" ry="12.387"/>
	</g>
</g>
<g id="Nose_Holes">
	<g>
		<path style="fill-rule:evenodd;clip-rule:evenodd;fill:#3F5928;" d="M26,35.123c-1.104,0-2,1.849-2,4.129s0.896,4.129,2,4.129
			s2-1.849,2-4.129S27.104,35.123,26,35.123z M38,35.123c-1.104,0-2,1.849-2,4.129s0.896,4.129,2,4.129s2-1.849,2-4.129
			S39.104,35.123,38,35.123z"/>
	</g>
</g>
<g id="Eyebrows">
	<g>
		<path style="fill-rule:evenodd;clip-rule:evenodd;fill:#638C3F;" d="M16,18.606H8c-1.104,0-2,0.925-2,2.064
			c0,1.141,0.896,2.064,2,2.064h8c1.104,0,2-0.924,2-2.064C18,19.531,17.104,18.606,16,18.606z M56,18.606h-8
			c-1.104,0-2,0.925-2,2.064c0,1.141,0.896,2.064,2,2.064h8c1.104,0,2-0.924,2-2.064C58,19.531,57.104,18.606,56,18.606z"/>
	</g>
</g>
<g>
</g>
<g>
</g>
<g>
</g>
<g>
</g>
<g>
</g>
<g>
</g>
<g>
</g>
<g>
</g>
<g>
</g>
<g>
</g>
<g>
</g>
<g>
</g>
<g>
</g>
<g>
</g>
<g>
</g>
</svg>
