<?xml version="1.0" encoding="iso-8859-1"?>
<!-- Generator: Adobe Illustrator 16.0.0, SVG Export Plug-In . SVG Version: 6.00 Build 0)  -->
<!DOCTYPE svg PUBLIC "-//W3C//DTD SVG 1.1//EN" "http://www.w3.org/Graphics/SVG/1.1/DTD/svg11.dtd">
<svg version="1.1" id="Layer_1" xmlns="http://www.w3.org/2000/svg" xmlns:xlink="http://www.w3.org/1999/xlink" x="0px" y="0px"
	 width="64.001px" height="60px" viewBox="0 0 64.001 60" style="enable-background:new 0 0 64.001 60;" xml:space="preserve">
<g id="Stand_1_">
	<g>
		<rect x="16.001" y="44" style="fill:#B3B3B3;" width="32" height="8"/>
	</g>
</g>
<g id="Leg">
	<g>
		<path style="fill:#CCCCCC;" d="M8.001,56c0,2.209,1.791,4,4,4s4-1.791,4-4V6h-8V56z M48.001,6v50c0,2.209,1.79,4,4,4
			c2.209,0,4-1.791,4-4V6H48.001z"/>
	</g>
</g>
<g id="Bar">
	<g>
		<path style="fill:#E6E6E6;" d="M60.445,15.999H3.556C1.592,15.999,0,17.609,0,19.596v8.789c0,1.986,1.592,3.597,3.556,3.597h56.89
			c1.963,0,3.555-1.61,3.555-3.597v-8.789C64,17.609,62.408,15.999,60.445,15.999z"/>
	</g>
</g>
<g id="Stripes_1_">
	<g>
		<path style="fill-rule:evenodd;clip-rule:evenodd;fill:#FF8833;" d="M10.001,16l-10,10v2.395c0.005,1.981,1.594,3.587,3.555,3.587
			H6.02L22.001,16H10.001z M60.455,16h-2.454L42.02,31.981h12l9.98-9.98v-2.405C64,17.612,62.413,16.006,60.455,16z M34.001,16
			l-16,16h12l16-16H34.001z"/>
	</g>
</g>
<g id="Lights">
	<g>
		<path style="fill-rule:evenodd;clip-rule:evenodd;fill:#FFCC66;" d="M12.001,0c-3.313,0-6,2.686-6,6c0,3.313,2.687,6,6,6
			s6-2.687,6-6C18.001,2.686,15.314,0,12.001,0z M52.001,0c-3.313,0-6,2.686-6,6c0,3.313,2.687,6,6,6s6-2.687,6-6
			C58.001,2.686,55.314,0,52.001,0z"/>
	</g>
</g>
<g>
</g>
<g>
</g>
<g>
</g>
<g>
</g>
<g>
</g>
<g>
</g>
<g>
</g>
<g>
</g>
<g>
</g>
<g>
</g>
<g>
</g>
<g>
</g>
<g>
</g>
<g>
</g>
<g>
</g>
</svg>
