<?xml version="1.0" encoding="iso-8859-1"?>
<!-- Generator: Adobe Illustrator 16.0.0, SVG Export Plug-In . SVG Version: 6.00 Build 0)  -->
<!DOCTYPE svg PUBLIC "-//W3C//DTD SVG 1.1//EN" "http://www.w3.org/Graphics/SVG/1.1/DTD/svg11.dtd">
<svg version="1.1" id="Layer_1" xmlns="http://www.w3.org/2000/svg" xmlns:xlink="http://www.w3.org/1999/xlink" x="0px" y="0px"
	 width="64px" height="60px" viewBox="0 0 64 60" style="enable-background:new 0 0 64 60;" xml:space="preserve">
<g id="Peak">
	<g>
		<path style="fill:#48A0DC;" d="M2,36.001V44c0,8,0,16,2,16c8,0,12-8,28-8s20,8,28,8c2,0,2-8,2-16v-7.999H2z"/>
	</g>
</g>
<g id="Crown">
	<g>
		<path style="fill-rule:evenodd;clip-rule:evenodd;fill:#408EC2;" d="M34,2.001C34,0,33.104,0,32,0c-1.105,0-2,0-2,2.001
			c-22,0-30,15.999-30,34C0,44,2,44,2,44l4-1.999c4-2,14-6,26-6s22,4,26,6L62,44c0,0,2,0,2-7.999C64,18,56,2.001,34,2.001z"/>
	</g>
</g>
<g id="Front">
	<g>
		<path style="fill:#E6E6E6;" d="M32,2.001c-24,0-26,18-26,22v18c4-2,14-6,26-6s21.999,4,26,6v-18C58,20.001,56,2.001,32,2.001z"/>
	</g>
</g>
<g>
</g>
<g>
</g>
<g>
</g>
<g>
</g>
<g>
</g>
<g>
</g>
<g>
</g>
<g>
</g>
<g>
</g>
<g>
</g>
<g>
</g>
<g>
</g>
<g>
</g>
<g>
</g>
<g>
</g>
</svg>
