<?xml version="1.0" encoding="iso-8859-1"?>
<!-- Generator: Adobe Illustrator 16.0.0, SVG Export Plug-In . SVG Version: 6.00 Build 0)  -->
<!DOCTYPE svg PUBLIC "-//W3C//DTD SVG 1.1//EN" "http://www.w3.org/Graphics/SVG/1.1/DTD/svg11.dtd">
<svg version="1.1" id="Layer_1" xmlns="http://www.w3.org/2000/svg" xmlns:xlink="http://www.w3.org/1999/xlink" x="0px" y="0px"
	 width="63.977px" height="63.974px" viewBox="0 0 63.977 63.974" style="enable-background:new 0 0 63.977 63.974;"
	 xml:space="preserve">
<g id="Leafs">
	<g>
		<path style="fill:#75A64B;" d="M63.417,0.559c-0.746-0.745-1.955-0.745-2.7,0L45.89,15.377l5.868-10.555
			c0.508-0.913,0.207-2.08-0.672-2.607c-0.879-0.526-2.003-0.213-2.511,0.7L36.219,25.138c-0.192,0.347-0.235,0.727-0.207,1.098
			c-0.01,0.313,0.034,0.628,0.206,0.916c0.293,0.492,0.807,0.765,1.36,0.832c0.006,0.001,0.012,0,0.018,0.001
			c0.398,0.045,0.815-0.002,1.195-0.215l22.24-12.437c0.914-0.511,1.243-1.615,0.735-2.468c-0.507-0.853-1.659-1.129-2.573-0.618
			l-10.831,6.057L63.417,3.257C64.163,2.512,64.163,1.304,63.417,0.559z M42.412,21.631l0.139-0.249
			c0.006,0.006,0.007,0.013,0.012,0.019c0.036,0.035,0.083,0.047,0.12,0.079L42.412,21.631z"/>
	</g>
</g>
<g id="Body_1_">
	<g>
		<path style="fill:#FB8512;" d="M50.99,21.462c-2.824-2.824-4.237-4.237-4.237-4.237s-1.414-1.414-4.238-4.237
			c-2.823-2.823-5.758-5.542-12.713,1.413C26.844,17.357,1.551,53.949,1.551,53.949s-3.489,4.986,0,8.475
			c3.488,3.488,8.475,0,8.475,0S46.62,37.132,49.578,34.175C56.533,27.22,53.814,24.286,50.99,21.462z"/>
	</g>
</g>
<g id="Stripes">
	<g>
		<path style="fill:#AB6017;" d="M17.275,32.556c-0.158-0.158-0.344-0.266-0.535-0.356c-0.719,1.019-1.439,2.042-2.158,3.063
			l4.14,4.147c0.745,0.745,1.953,0.745,2.698,0c0.746-0.746,0.746-1.955,0-2.701L17.275,32.556z M15.275,46.555
			c-0.744-0.746-1.953-0.746-2.698,0c-0.745,0.745-0.745,1.954,0,2.7l2.145,2.153c0.745,0.746,1.953,0.746,2.698,0
			c0.746-0.746,0.746-1.955,0-2.7L15.275,46.555z M35.42,29.41c0.746-0.746,0.746-1.955,0-2.701l-8.145-8.152
			c-0.146-0.146-0.32-0.241-0.496-0.33c-0.664,0.893-1.408,1.907-2.213,3.014c0.005,0.005,0.006,0.012,0.011,0.017l8.145,8.153
			C33.467,30.155,34.675,30.155,35.42,29.41z M51.42,26.709l-8.145-8.152c-0.744-0.746-1.953-0.746-2.698,0
			c-0.745,0.745-0.745,1.954,0,2.7l8.145,8.152c0.745,0.746,1.953,0.746,2.698,0C52.165,28.664,52.165,27.455,51.42,26.709z
			 M32.577,38.556c-0.745,0.745-0.745,1.954,0,2.7l3.165,3.172c1.082-0.769,2.135-1.52,3.151-2.247l-3.617-3.625
			C34.531,37.81,33.322,37.81,32.577,38.556z"/>
	</g>
</g>
<g>
</g>
<g>
</g>
<g>
</g>
<g>
</g>
<g>
</g>
<g>
</g>
<g>
</g>
<g>
</g>
<g>
</g>
<g>
</g>
<g>
</g>
<g>
</g>
<g>
</g>
<g>
</g>
<g>
</g>
</svg>
