<?xml version="1.0" encoding="iso-8859-1"?>
<!-- Generator: Adobe Illustrator 16.0.0, SVG Export Plug-In . SVG Version: 6.00 Build 0)  -->
<!DOCTYPE svg PUBLIC "-//W3C//DTD SVG 1.1//EN" "http://www.w3.org/Graphics/SVG/1.1/DTD/svg11.dtd">
<svg version="1.1" id="Layer_1" xmlns="http://www.w3.org/2000/svg" xmlns:xlink="http://www.w3.org/1999/xlink" x="0px" y="0px"
	 width="64px" height="64px" viewBox="0 0 64 64" style="enable-background:new 0 0 64 64;" xml:space="preserve">
<g id="Handles">
	<g>
		<path style="fill:#E6B85C;" d="M56,4c-7,0-8,6-8,8s0,4,2,4s2-2,2-4s1-4,4-4s4,2,4,4c0,10-12,16-18,16H22c-6,0-18-6-18-16
			c0-2,1-4,4-4s4,2,4,4s0,4,2,4s2-2,2-4s-1-8-8-8c-5,0-8,4-8,8c0,12,14,20,22,20h20c8,0,22-8,22-20C64,8,61,4,56,4z"/>
	</g>
</g>
<g id="Cup">
	<g>
		<path style="fill:#FFCC66;" d="M50,4c0-2.001,0-4-2-4S18,0,16,0s-2,1.999-2,4c0,34,14,30,14,34v4c0,4-6,2-6,6h20c0-4-6-2-6-6v-4
			C36,34,50,38,50,4z"/>
	</g>
</g>
<g id="Stand">
	<g>
		<path style="fill:#666666;" d="M50,52H14c-1.104,0-2,0.895-2,2v8c0,1.104,0.896,2,2,2h36c1.104,0,2-0.896,2-2v-8
			C52,52.895,51.104,52,50,52z"/>
	</g>
</g>
<g id="Plate">
	<g>
		<rect x="22" y="56" style="fill:#E6E6E6;" width="20" height="4"/>
	</g>
</g>
<g id="Base_1_">
	<g>
		<path style="fill-rule:evenodd;clip-rule:evenodd;fill:#E6B85C;" d="M42,48H22c0,0-6,0-6,4h32C48,48,42,48,42,48z M28,42h8
			c1.104,0,2-0.896,2-2c0-1.105-0.896-2-2-2h-8c-1.104,0-2,0.895-2,2C26,41.104,26.896,42,28,42z"/>
	</g>
</g>
<g id="_x31_">
	<g>
		<path style="fill-rule:evenodd;clip-rule:evenodd;fill:#CCA352;" d="M36,19.999h-2v-10v-2v-2h-2c-0.744,0-1.387,0.411-1.73,1.015
			l-3.7,3.701c-0.75,0.749-0.75,1.966,0,2.715c0.749,0.75,1.965,0.75,2.715,0L30,12.714v7.285h-2c-1.105,0-2,0.896-2,2s0.895,2,2,2
			h8c1.104,0,2-0.896,2-2S37.104,19.999,36,19.999z"/>
	</g>
</g>
<g>
</g>
<g>
</g>
<g>
</g>
<g>
</g>
<g>
</g>
<g>
</g>
<g>
</g>
<g>
</g>
<g>
</g>
<g>
</g>
<g>
</g>
<g>
</g>
<g>
</g>
<g>
</g>
<g>
</g>
</svg>
