<?xml version="1.0" encoding="iso-8859-1"?>
<!-- Generator: Adobe Illustrator 16.0.0, SVG Export Plug-In . SVG Version: 6.00 Build 0)  -->
<!DOCTYPE svg PUBLIC "-//W3C//DTD SVG 1.1//EN" "http://www.w3.org/Graphics/SVG/1.1/DTD/svg11.dtd">
<svg version="1.1" id="Layer_1" xmlns="http://www.w3.org/2000/svg" xmlns:xlink="http://www.w3.org/1999/xlink" x="0px" y="0px"
	 width="64px" height="64px" viewBox="0 0 64 64" style="enable-background:new 0 0 64 64;" xml:space="preserve">
<g id="Envelope">
	<g>
		<path style="fill:#FFCC66;" d="M0,0v60c0,2.209,1.791,4,4,4h56c2.209,0,4-1.791,4-4V0H0z"/>
	</g>
</g>
<g id="Envelope_1_">
	<g>
		<path style="fill:#CCA352;" d="M0,0c0,0,0.831,16,6,16h52c5.169,0,6-16,6-16H0z"/>
	</g>
</g>
<g id="String_1_">
	<g>
		<polygon style="fill-rule:evenodd;clip-rule:evenodd;fill:#997A3D;" points="36,8 34,8 32,13.333 30,8 28,8 31,16 28,24 30,24 
			32,18.667 34,24 36,24 33,16 		"/>
	</g>
</g>
<g id="Elipse">
	<g>
		<circle style="fill:#FFFFFF;" cx="32" cy="24" r="4"/>
	</g>
</g>
<g id="Elipse_1_">
	<g>
		<circle style="fill:#FFFFFF;" cx="32" cy="8" r="4"/>
	</g>
</g>
<g>
</g>
<g>
</g>
<g>
</g>
<g>
</g>
<g>
</g>
<g>
</g>
<g>
</g>
<g>
</g>
<g>
</g>
<g>
</g>
<g>
</g>
<g>
</g>
<g>
</g>
<g>
</g>
<g>
</g>
</svg>
