<?xml version="1.0" encoding="iso-8859-1"?>
<!-- Generator: Adobe Illustrator 16.0.0, SVG Export Plug-In . SVG Version: 6.00 Build 0)  -->
<!DOCTYPE svg PUBLIC "-//W3C//DTD SVG 1.1//EN" "http://www.w3.org/Graphics/SVG/1.1/DTD/svg11.dtd">
<svg version="1.1" id="Layer_1" xmlns="http://www.w3.org/2000/svg" xmlns:xlink="http://www.w3.org/1999/xlink" x="0px" y="0px"
	 width="60px" height="64.001px" viewBox="0 0 60 64.001" style="enable-background:new 0 0 60 64.001;" xml:space="preserve">
<g id="Binocular">
	<g>
		<path style="fill-rule:evenodd;clip-rule:evenodd;fill:#999999;" d="M4,48.001h16v-4H4V48.001z M26,6.001c0-1.105-0.896-2-2-2H12
			c-1.104,0-2,0.895-2,2v4c0,1.104,0.896,2,2,2h12c1.104,0,2-0.896,2-2V6.001z M40,44.001v4h16v-4H40z M50,10.001v-4
			c0-1.105-0.896-2-2-2H36c-1.104,0-2,0.895-2,2v4c0,1.104,0.896,2,2,2h12C49.104,12.001,50,11.105,50,10.001z M32,20h-4
			c-1.104,0-2,0.896-2,2v16.001c0,1.104,0.896,2,2,2h4c1.104,0,2-0.896,2-2V22C34,20.896,33.104,20,32,20z"/>
	</g>
</g>
<g id="Binocular_1_">
	<g>
		<path style="fill-rule:evenodd;clip-rule:evenodd;fill:#666666;" d="M2,48.001l-2,12c0,2.209,1.791,4,4,4h16c2.209,0,4-1.791,4-4
			l-2-12H2z M20,0h-4c-2.209,0-4,1.791-4,4.001h12C24,1.791,22.209,0,20,0z M38,48.001l-2,12c0,2.209,1.791,4,4,4h16
			c2.209,0,4-1.791,4-4l-2-12H38z M44,0h-4c-2.209,0-4,1.791-4,4.001h12C48,1.791,46.209,0,44,0z M24,16.001v-4H12v4H6
			c-1.104,0-2,0.895-2,2L0,42c0,1.105,0.896,2.001,2,2.001h22c1.104,0,2-0.896,2-2.001V18.001C26,16.896,25.104,16.001,24,16.001z
			 M58,44.001c1.104,0,2-0.896,2-2.001l-4-23.999c0-1.105-0.896-2-2-2h-6v-4H36v4c-1.104,0-2,0.895-2,2V42
			c0,1.105,0.896,2.001,2,2.001H58z"/>
	</g>
</g>
<g>
</g>
<g>
</g>
<g>
</g>
<g>
</g>
<g>
</g>
<g>
</g>
<g>
</g>
<g>
</g>
<g>
</g>
<g>
</g>
<g>
</g>
<g>
</g>
<g>
</g>
<g>
</g>
<g>
</g>
</svg>
