<?xml version="1.0" encoding="iso-8859-1"?>
<!-- Generator: Adobe Illustrator 16.0.0, SVG Export Plug-In . SVG Version: 6.00 Build 0)  -->
<!DOCTYPE svg PUBLIC "-//W3C//DTD SVG 1.1//EN" "http://www.w3.org/Graphics/SVG/1.1/DTD/svg11.dtd">
<svg version="1.1" id="Layer_1" xmlns="http://www.w3.org/2000/svg" xmlns:xlink="http://www.w3.org/1999/xlink" x="0px" y="0px"
	 width="64px" height="60.001px" viewBox="0 0 64 60.001" style="enable-background:new 0 0 64 60.001;" xml:space="preserve">
<g id="Folder">
	<g>
		<path style="fill-rule:evenodd;clip-rule:evenodd;fill:#CCA352;" d="M60,4.001H24C24,1.792,22.209,0,20,0H4
			C1.791,0,0,1.792,0,4.001V8v6.001v2c0,2.209,1.791,4,4,4h56c2.209,0,4-1.791,4-4V8C64,5.791,62.209,4.001,60,4.001z"/>
	</g>
</g>
<g id="File_1_">
	<g>
		<path style="fill:#FFFFFF;" d="M56,8H8c-2.209,0-4,1.791-4,4.001v4c0,2.209,1.791,4,4,4h48c2.209,0,4-1.791,4-4v-4
			C60,9.791,58.209,8,56,8z"/>
	</g>
</g>
<g id="Folder_1_">
	<g>
		<path style="fill:#FFCC66;" d="M60,12.001H4c-2.209,0-4,1.791-4,4v40c0,2.209,1.791,4,4,4h56c2.209,0,4-1.791,4-4v-40
			C64,13.792,62.209,12.001,60,12.001z"/>
	</g>
</g>
<g>
</g>
<g>
</g>
<g>
</g>
<g>
</g>
<g>
</g>
<g>
</g>
<g>
</g>
<g>
</g>
<g>
</g>
<g>
</g>
<g>
</g>
<g>
</g>
<g>
</g>
<g>
</g>
<g>
</g>
</svg>
