<?xml version="1.0" encoding="iso-8859-1"?>
<!-- Generator: Adobe Illustrator 16.0.0, SVG Export Plug-In . SVG Version: 6.00 Build 0)  -->
<!DOCTYPE svg PUBLIC "-//W3C//DTD SVG 1.1//EN" "http://www.w3.org/Graphics/SVG/1.1/DTD/svg11.dtd">
<svg version="1.1" id="Layer_1" xmlns="http://www.w3.org/2000/svg" xmlns:xlink="http://www.w3.org/1999/xlink" x="0px" y="0px"
	 width="64px" height="56px" viewBox="0 0 64 56" style="enable-background:new 0 0 64 56;" xml:space="preserve">
<g id="Helmet">
	<g>
		<path style="fill:#48A0DC;" d="M56,18c0-4-10-18-26-18S0,12,0,28s14,28,16,28s4-4,8-4s6,2,12,2c4,0,6-4,6-8s-4-6-4-14S56,22,56,18
			z"/>
	</g>
</g>
<g id="Helmet_1_">
	<g>
		<circle style="fill:#51B3F5;" cx="28" cy="36" r="8"/>
	</g>
</g>
<g id="Hole">
	<g>
		<circle style="fill:#666666;" cx="28" cy="36" r="4"/>
	</g>
</g>
<g id="Mask">
	<g>
		<path style="fill-rule:evenodd;clip-rule:evenodd;fill:#666666;" d="M44,32l-2-6c0,0,18-7,18-8s-1-2-2-2s-18,6-20,8s-8,16-8,18
			s14,2,14,2s2.734,5.47,4,8c2,4,4,4,12,4c2,0,4-8,4-22C64,33,54,32,44,32z M36,38c0-2,2-8,2-8l4,10C42,40,36,40,36,38z M60,38
			c0,0.698-0.012,1.359-0.03,2H47.629C46.685,37.712,46,36,46,36C54,36,60,36,60,38z M52,50c-0.73-1.46-1.727-3.72-2.697-6h10.422
			C59.178,49.627,58,52,58,52S52.895,51.789,52,50z"/>
	</g>
</g>
<g id="Strap">
	<g>
		<path style="fill:#CCCCCC;" d="M32,28c-2,0-2,1-2,2c0,2,6,4,6,4l2-4C38,30,34,28,32,28z"/>
	</g>
</g>
<g>
</g>
<g>
</g>
<g>
</g>
<g>
</g>
<g>
</g>
<g>
</g>
<g>
</g>
<g>
</g>
<g>
</g>
<g>
</g>
<g>
</g>
<g>
</g>
<g>
</g>
<g>
</g>
<g>
</g>
</svg>
