<?xml version="1.0" encoding="iso-8859-1"?>
<!-- Generator: Adobe Illustrator 16.0.0, SVG Export Plug-In . SVG Version: 6.00 Build 0)  -->
<!DOCTYPE svg PUBLIC "-//W3C//DTD SVG 1.1//EN" "http://www.w3.org/Graphics/SVG/1.1/DTD/svg11.dtd">
<svg version="1.1" id="Layer_1" xmlns="http://www.w3.org/2000/svg" xmlns:xlink="http://www.w3.org/1999/xlink" x="0px" y="0px"
	 width="64px" height="64px" viewBox="0 0 64 64" style="enable-background:new 0 0 64 64;" xml:space="preserve">
<g id="Ball">
	<g>
		<path style="fill:#A67C52;" d="M54,0C22,0,0,22,0,54c0,10,0,10,10,10c32,0,54-22,54-54C64,0,64,0,54,0z"/>
	</g>
</g>
<g id="Ball_1_">
	<g>
		<path style="fill:#8C6845;" d="M62,2L2,62c2,2,4,2,8,2c32,0,54-22,54-54C64,6,64,4,62,2z"/>
	</g>
</g>
<g id="Lines">
	<g>
		<path style="fill-rule:evenodd;clip-rule:evenodd;fill:#E6E6E6;" d="M2.062,37.837c-0.76,2.841-1.313,5.809-1.652,8.887
			C1.255,48.133,3.505,51.505,8,56s7.867,6.744,9.276,7.591c2.827-0.313,5.558-0.806,8.186-1.473C22.173,60.436,17.384,57.384,12,52
			C6.813,46.813,3.781,41.628,2.062,37.837z M56,8c-4.495-4.495-7.867-6.744-9.276-7.591c-2.827,0.313-5.558,0.806-8.186,1.473
			C41.827,3.564,46.616,6.616,52,12c5.188,5.188,8.219,10.372,9.938,14.163c0.76-2.841,1.313-5.809,1.652-8.887
			C62.745,15.867,60.495,12.495,56,8z"/>
	</g>
</g>
<g id="Lace">
	<g>
		<path style="fill:#CCCCCC;" d="M44,18c-1,0-26,25-26,26s1,2,2,2s26-25,26-26C46,18.999,45,18,44,18z"/>
	</g>
</g>
<g id="Lace_1_">
	<g>
		<path style="fill-rule:evenodd;clip-rule:evenodd;fill:#FFFFFF;" d="M38,18c-1,0-2,0.999-2,2c0,1,7,8,8,8s2-1,2-2S39,18,38,18z
			 M32,24c-1,0-2,1-2,2s7,8,8,8s2-1,2-2S33,24,32,24z M26,30c-1,0-2,1-2,2s7,8,8,8s2-1,2-2S27,30,26,30z M20,36c-1,0-2,1-2,2
			s7,8,8,8s2-1,2-2S21,36,20,36z"/>
	</g>
</g>
<g>
</g>
<g>
</g>
<g>
</g>
<g>
</g>
<g>
</g>
<g>
</g>
<g>
</g>
<g>
</g>
<g>
</g>
<g>
</g>
<g>
</g>
<g>
</g>
<g>
</g>
<g>
</g>
<g>
</g>
</svg>
