<?xml version="1.0" encoding="iso-8859-1"?>
<!-- Generator: Adobe Illustrator 16.0.0, SVG Export Plug-In . SVG Version: 6.00 Build 0)  -->
<!DOCTYPE svg PUBLIC "-//W3C//DTD SVG 1.1//EN" "http://www.w3.org/Graphics/SVG/1.1/DTD/svg11.dtd">
<svg version="1.1" id="Layer_1" xmlns="http://www.w3.org/2000/svg" xmlns:xlink="http://www.w3.org/1999/xlink" x="0px" y="0px"
	 width="64px" height="64.001px" viewBox="0 0 64 64.001" style="enable-background:new 0 0 64 64.001;" xml:space="preserve">
<g id="Body_12_">
	<g>
		<path style="fill-rule:evenodd;clip-rule:evenodd;fill:#ED7161;" d="M34.399,40c-1.569-0.516-0.846-2.848-0.524-3.692
			c0.077-0.17,0.125-0.29,0.125-0.307C34,31.582,30.418,28,26,28c-3.376,0-6.258,2.094-7.432,5.053
			C16.803,36.164,14,36.001,14,36.001C6.268,36.001,0,42.269,0,50c0,5.982,8.018,14.001,14,14.001c7.731,0,14-6.269,14-14.001
			c0-0.068-0.009-0.134-0.01-0.202L28,49.801c0-6.571,5.463-5.719,6.399-5.801c1.105,0,2-0.895,2-1.999
			C36.399,40.896,35.505,40,34.399,40z"/>
	</g>
</g>
<g id="Body_Plate">
	<g>
		<path style="fill-rule:evenodd;clip-rule:evenodd;fill:#9D5F57;" d="M27.988,49.797L28,49.801c0-6.571,5.463-5.719,6.399-5.801
			c1.105,0,2-0.895,2-1.999c0-1.105-0.895-2.001-2-2.001c-1.569-0.516-0.846-2.846-0.525-3.691C33.953,36.135,34,36.019,34,36.001
			c0-1.193-0.269-2.321-0.736-3.338C29.667,35.9,14,50,14,50s7.375,7.85,12.121,6.986C27.309,54.928,28,52.547,28,50
			C28,49.932,27.989,49.866,27.988,49.797z"/>
	</g>
</g>
<g id="Pickup">
	<g>
		<path style="fill:#FFFFFF;" d="M25.463,40.972l-2.491-2.492c-0.688-0.688-1.803-0.688-2.491,0c-0.688,0.688-0.688,1.804,0,2.492
			l2.491,2.49c0.688,0.688,1.804,0.688,2.491,0C26.151,42.774,26.151,41.659,25.463,40.972z"/>
	</g>
</g>
<g id="Pickup_1_">
	<g>
		<path style="fill:#FFFFFF;" d="M17.463,48.972l-2.491-2.491c-0.688-0.688-1.803-0.688-2.49,0c-0.688,0.688-0.688,1.803,0,2.491
			l2.49,2.49c0.688,0.688,1.804,0.688,2.491,0C18.151,50.774,18.151,49.659,17.463,48.972z"/>
	</g>
</g>
<g id="Controlls">
	<g>
		<path style="fill-rule:evenodd;clip-rule:evenodd;fill:#FFFFFF;" d="M15,55.998c-0.553,0-1,0.448-1,1.001
			c0,0.552,0.447,0.999,1,0.999c0.552,0,1-0.447,1-0.999C16,56.446,15.552,55.998,15,55.998z M19,55.998c-0.553,0-1,0.448-1,1.001
			c0,0.552,0.447,0.999,1,0.999c0.552,0,1-0.447,1-0.999C20,56.446,19.552,55.998,19,55.998z"/>
	</g>
</g>
<g id="Headstock">
	<g>
		<polygon style="fill-rule:evenodd;clip-rule:evenodd;fill:#E8AD72;" points="62,2.001 62,1.999 61.998,1.999 60,0 58,0 52,6 53,7 
			24,35.999 28,39.999 56.999,11 58,12.001 64,6 64,4 		"/>
	</g>
</g>
<g id="Head_4_">
	<g>
		<polygon style="fill-rule:evenodd;clip-rule:evenodd;fill:#666666;" points="62,2.001 60,0 58,0 52,6 52,8 54,10 56,12.001 
			58,12.001 64,6 64,4 		"/>
	</g>
</g>
<g>
</g>
<g>
</g>
<g>
</g>
<g>
</g>
<g>
</g>
<g>
</g>
<g>
</g>
<g>
</g>
<g>
</g>
<g>
</g>
<g>
</g>
<g>
</g>
<g>
</g>
<g>
</g>
<g>
</g>
</svg>
