<?xml version="1.0" encoding="iso-8859-1"?>
<!-- Generator: Adobe Illustrator 16.0.0, SVG Export Plug-In . SVG Version: 6.00 Build 0)  -->
<!DOCTYPE svg PUBLIC "-//W3C//DTD SVG 1.1//EN" "http://www.w3.org/Graphics/SVG/1.1/DTD/svg11.dtd">
<svg version="1.1" id="Layer_1" xmlns="http://www.w3.org/2000/svg" xmlns:xlink="http://www.w3.org/1999/xlink" x="0px" y="0px"
	 width="64px" height="48px" viewBox="0 0 64 48" style="enable-background:new 0 0 64 48;" xml:space="preserve">
<g id="BTNs">
	<g>
		<path style="fill-rule:evenodd;clip-rule:evenodd;fill:#B3B3B3;" d="M6,32H2c-1.104,0-2,0.896-2,2v4c0,1.104,0.896,2,2,2h4
			c1.104,0,2-0.896,2-2v-4C8,32.896,7.104,32,6,32z M20,0h-4c-1.104,0-2,0.896-2,2v4.001C14,7.104,14.896,8,16,8h4
			c1.104,0,2-0.896,2-1.999V2C22,0.896,21.104,0,20,0z"/>
	</g>
</g>
<g id="Body_4_">
	<g>
		<path style="fill:#CCCCCC;" d="M60,4H8C5.791,4,4,5.791,4,8v36c0,2.209,1.791,4,4,4h52c2.209,0,4-1.791,4-4V8
			C64,5.791,62.209,4,60,4z"/>
	</g>
</g>
<g id="Display">
	<g>
		<rect x="12" y="10" style="fill:#859D70;" width="12" height="16"/>
	</g>
</g>
<g id="BTn">
	<g>
		<circle style="fill:#FFFFFF;" cx="16" cy="36" r="4"/>
	</g>
</g>
<g id="LED">
	<g>
		<circle style="fill:#B3B3B3;" cx="26" cy="32" r="2"/>
	</g>
</g>
<g id="Rec_LED">
	<g>
		<circle style="fill:#ED7161;" cx="26" cy="40" r="2"/>
	</g>
</g>
<g id="Lens_Frame">
	<g>
		<path style="fill:#4D4D4D;" d="M62,2H34c-1.104,0-2,0.896-2,2v28c0,1.104,0.896,2,2,2h28c1.104,0,2-0.896,2-2V4
			C64,2.896,63.104,2,62,2z"/>
	</g>
</g>
<g id="Lens_Body">
	<g>
		<rect x="36" y="6.001" style="fill:#666666;" width="24" height="23.999"/>
	</g>
</g>
<g id="Lens">
	<g>
		<circle style="fill:#4D4D4D;" cx="48" cy="18" r="8"/>
	</g>
</g>
<g id="Lens_1_">
	<g>
		<circle style="fill:#333333;" cx="48" cy="18" r="2"/>
	</g>
</g>
<g>
</g>
<g>
</g>
<g>
</g>
<g>
</g>
<g>
</g>
<g>
</g>
<g>
</g>
<g>
</g>
<g>
</g>
<g>
</g>
<g>
</g>
<g>
</g>
<g>
</g>
<g>
</g>
<g>
</g>
</svg>
