<?xml version="1.0" encoding="iso-8859-1"?>
<!-- Generator: Adobe Illustrator 16.0.0, SVG Export Plug-In . SVG Version: 6.00 Build 0)  -->
<!DOCTYPE svg PUBLIC "-//W3C//DTD SVG 1.1//EN" "http://www.w3.org/Graphics/SVG/1.1/DTD/svg11.dtd">
<svg version="1.1" id="Layer_1" xmlns="http://www.w3.org/2000/svg" xmlns:xlink="http://www.w3.org/1999/xlink" x="0px" y="0px"
	 width="64px" height="59.992px" viewBox="0 0 64 59.992" style="enable-background:new 0 0 64 59.992;" xml:space="preserve">
<g id="Headphone">
	<g>
		<path style="fill:#CCCCCC;" d="M32,0C16.536,0,4,12.535,4,27.996v9.998c0,1.105,0.895,2,2,2c1.104,0,1.999-0.895,2-1.999v-9.999
			C8,14.743,18.745,3.999,32,3.999s24,10.744,24,23.997v9.998c0,1.105,0.895,2,2,2c1.104,0,1.999-0.895,2-1.999v-9.999
			C60,12.535,47.464,0,32,0z"/>
	</g>
</g>
<g id="Headphone_3_">
	<g>
		<path style="fill-rule:evenodd;clip-rule:evenodd;fill:#88C057;" d="M7,33.996c-6.075,0-7,4.924-7,10.998s0.925,10.998,7,10.998
			s3-4.924,3-10.998S13.075,33.996,7,33.996z M57.604,33.996c-5.742,0-2.836,4.924-2.836,10.998s-2.906,10.998,2.836,10.998
			c5.741,0,6.396-4.924,6.396-10.998S63.345,33.996,57.604,33.996z"/>
	</g>
</g>
<g id="Headphone_2_">
	<g>
		<path style="fill-rule:evenodd;clip-rule:evenodd;fill:#666666;" d="M12,29.996c-3.314,0-6,2.687-6,5.999v17.998
			c0,3.313,2.686,5.999,6,5.999c3.313,0,6-2.686,6-5.999V35.995C18,32.683,15.313,29.996,12,29.996z M52,29.996
			c-3.314,0-6,2.687-6,5.999v17.998c0,3.313,2.686,5.999,6,5.999c3.313,0,6-2.686,6-5.999V35.995C58,32.683,55.313,29.996,52,29.996
			z"/>
	</g>
</g>
<g>
</g>
<g>
</g>
<g>
</g>
<g>
</g>
<g>
</g>
<g>
</g>
<g>
</g>
<g>
</g>
<g>
</g>
<g>
</g>
<g>
</g>
<g>
</g>
<g>
</g>
<g>
</g>
<g>
</g>
</svg>
