<?xml version="1.0" encoding="iso-8859-1"?>
<!-- Generator: Adobe Illustrator 16.0.0, SVG Export Plug-In . SVG Version: 6.00 Build 0)  -->
<!DOCTYPE svg PUBLIC "-//W3C//DTD SVG 1.1//EN" "http://www.w3.org/Graphics/SVG/1.1/DTD/svg11.dtd">
<svg version="1.1" id="Layer_1" xmlns="http://www.w3.org/2000/svg" xmlns:xlink="http://www.w3.org/1999/xlink" x="0px" y="0px"
	 width="64px" height="64px" viewBox="0 0 64 64" style="enable-background:new 0 0 64 64;" xml:space="preserve">
<g id="Base">
	<g>
		<path style="fill:#CC6D29;" d="M48,60H16c-1.104,0-2,0.896-2,2s0.896,2,2,2h32c1.104,0,2-0.896,2-2S49.104,60,48,60z"/>
	</g>
</g>
<g id="Jar">
	<g>
		<path style="fill:#FF8833;" d="M48,12H16C10.669,18.554,6,25.768,6,36c0,10.231,4.669,17.445,10,24h32c5.33-6.555,10-13.769,10-24
			C58,25.768,53.33,18.554,48,12z"/>
	</g>
</g>
<g id="Cover">
	<g>
		<path style="fill:#E6E6E6;" d="M50,10H14C3.979,15.498,0,17.441,0,20c0,2.558,4.471,4,8,4s5.941-4,10-4s8.029,2,12,2
			c3.97,0,4.059-4,6-4c1.94,0,4.029,8,8,8c3.97,0,6.147-8,8-8s2.412,4,4,4s8-0.472,8-4C64,14.471,50,10,50,10z"/>
	</g>
</g>
<g id="Cover_1_">
	<g>
		<path style="fill:#CCCCCC;" d="M46,0H18c-2.209,0-4,1.79-4,4v4h36V4C50,1.79,48.209,0,46,0z"/>
	</g>
</g>
<g id="String">
	<g>
		<rect x="14" y="6" style="fill:#999999;" width="36" height="4"/>
	</g>
</g>
<g id="Content">
	<g>
		<path style="fill-rule:evenodd;clip-rule:evenodd;fill:#E67A2E;" d="M20,34c-1.104,0-2,0.895-2,2c0,1.104,0.896,1.999,2,1.999
			s2-0.895,2-1.999C22,34.895,21.104,34,20,34z M26,32c1.104,0,2-0.896,2-2c0-1.105-0.896-2.001-2-2.001S24,28.895,24,30
			C24,31.104,24.896,32,26,32z M28,40c-1.104,0-2,0.896-2,2s0.896,2,2,2s2-0.896,2-2S29.104,40,28,40z M36,30c-1.104,0-2,0.895-2,2
			c0,1.104,0.896,2,2,2s2-0.896,2-2C38,30.895,37.104,30,36,30z M42,37.999c-1.104,0-2,0.896-2,2.001c0,1.104,0.896,2,2,2
			s2-0.896,2-2C44,38.895,43.104,37.999,42,37.999z M48,32c-1.104,0-2,0.895-2,2c0,1.104,0.896,2,2,2s2-0.896,2-2
			C50,32.895,49.104,32,48,32z M18,44c-1.104,0-2,0.895-2,2c0,1.104,0.896,1.999,2,1.999s2-0.895,2-1.999C20,44.895,19.104,44,18,44
			z M26,50c-1.104,0-2,0.896-2,2s0.896,2,2,2s2-0.896,2-2S27.104,50,26,50z M36,52c-1.104,0-2,0.896-2,2c0,1.104,0.896,2,2,2
			s2-0.896,2-2C38,52.896,37.104,52,36,52z M36,44c-1.104,0-2,0.895-2,2c0,1.104,0.896,1.999,2,1.999s2-0.895,2-1.999
			C38,44.895,37.104,44,36,44z M46,46c-1.104,0-2,0.895-2,1.999C44,49.104,44.896,50,46,50s2-0.896,2-2.001
			C48,46.895,47.104,46,46,46z M18,27.999C18,26.896,17.104,26,16,26s-2,0.896-2,1.999C14,29.104,14.896,30,16,30
			S18,29.104,18,27.999z"/>
	</g>
</g>
<g>
</g>
<g>
</g>
<g>
</g>
<g>
</g>
<g>
</g>
<g>
</g>
<g>
</g>
<g>
</g>
<g>
</g>
<g>
</g>
<g>
</g>
<g>
</g>
<g>
</g>
<g>
</g>
<g>
</g>
</svg>
