<?xml version="1.0" encoding="iso-8859-1"?>
<!-- Generator: Adobe Illustrator 16.0.0, SVG Export Plug-In . SVG Version: 6.00 Build 0)  -->
<!DOCTYPE svg PUBLIC "-//W3C//DTD SVG 1.1//EN" "http://www.w3.org/Graphics/SVG/1.1/DTD/svg11.dtd">
<svg version="1.1" id="Layer_1" xmlns="http://www.w3.org/2000/svg" xmlns:xlink="http://www.w3.org/1999/xlink" x="0px" y="0px"
	 width="40px" height="64px" viewBox="0 0 40 64" style="enable-background:new 0 0 40 64;" xml:space="preserve">
<g id="Body_11_">
	<g>
		<path style="fill:#4D4D4D;" d="M32,0H8C3.582,0,0,3.582,0,8.001V56c0,4.419,3.582,8,8,8h24c4.418,0,8-3.581,8-8V8.001
			C40,3.582,36.418,0,32,0z"/>
	</g>
</g>
<g id="Hole_1_">
	<g>
		<ellipse style="fill:#333333;" cx="20" cy="6" rx="12" ry="2"/>
	</g>
</g>
<g id="Apple_Logo">
	<g>
		<path style="fill-rule:evenodd;clip-rule:evenodd;fill:#808080;" d="M22.989,25.022c0.771-0.808,1.293-1.929,1.151-3.048
			c-1.112,0.038-2.459,0.638-3.256,1.445c-0.716,0.715-1.341,1.857-1.174,2.953C20.952,26.456,22.218,25.828,22.989,25.022z
			 M25.356,32.745c-0.024-2.508,2.028-3.712,2.121-3.771c-1.154-1.702-2.952-1.935-3.592-1.961
			c-1.529-0.157-2.984,0.907-3.762,0.907c-0.773,0-1.972-0.886-3.24-0.862c-1.668,0.026-3.205,0.977-4.063,2.482
			c-1.732,3.03-0.444,7.519,1.245,9.976c0.825,1.203,1.809,2.553,3.1,2.503c1.245-0.049,1.716-0.811,3.22-0.811
			c1.503,0,1.926,0.811,3.241,0.786c1.339-0.024,2.187-1.226,3.006-2.432c0.947-1.396,1.337-2.746,1.36-2.814
			C27.963,36.733,25.384,35.739,25.356,32.745z"/>
	</g>
</g>
<g>
</g>
<g>
</g>
<g>
</g>
<g>
</g>
<g>
</g>
<g>
</g>
<g>
</g>
<g>
</g>
<g>
</g>
<g>
</g>
<g>
</g>
<g>
</g>
<g>
</g>
<g>
</g>
<g>
</g>
</svg>
