<?xml version="1.0" encoding="iso-8859-1"?>
<!-- Generator: Adobe Illustrator 16.0.0, SVG Export Plug-In . SVG Version: 6.00 Build 0)  -->
<!DOCTYPE svg PUBLIC "-//W3C//DTD SVG 1.1//EN" "http://www.w3.org/Graphics/SVG/1.1/DTD/svg11.dtd">
<svg version="1.1" id="Layer_1" xmlns="http://www.w3.org/2000/svg" xmlns:xlink="http://www.w3.org/1999/xlink" x="0px" y="0px"
	 width="64px" height="40px" viewBox="0 0 64 40" style="enable-background:new 0 0 64 40;" xml:space="preserve">
<g id="Tongue">
	<g>
		<path style="fill:#CCCCCC;" d="M22,0c-4,0-4,4-4,4v4h12C28,4,24,0,22,0z"/>
	</g>
</g>
<g id="Upper">
	<g>
		<path style="fill:#E6E6E6;" d="M46,24c-4,0-14-14-16-16s-4-4-6-4c0,0-2,0-4,2s-6,4-10,4c-2.254,0-1.057,0-4,0c-2,0-4,0-4,2v4
			c0,2-2,5.994-2,12v6h58v-8C48,24,46,24,46,24z"/>
	</g>
</g>
<g id="Design">
	<g>
		<path style="fill:#D46557;" d="M30,8c-2-2-4-4-6-4c0,0-2,0-4,2c0,0,4,4,6,6c1.414,1.414,0,2.001,2,4c2,2,4,0,6,2c4,4.001,6,8,12,8
			v-2C42,24,32,10,30,8z"/>
	</g>
</g>
<g id="Design_1_">
	<g>
		<path style="fill-rule:evenodd;clip-rule:evenodd;fill:#ED7161;" d="M34,26c0-4-4-6-4-6s0.189,4-2,4
			c-1.653,0-4.829-1.182-8.408-2.803C22.866,17.026,27.554,12.447,30,10c0,0,0-2-2-4s-4-2-4-2
			c-5.233,5.233-9.906,9.357-13.709,12.573C5.66,14.118,2,12,2,12v2c0,0,2.592,1.885,6.157,4.36C3.06,22.597,0,24.933,0,26
			c0,1.931,0,8,0,8h16c0,0,0-1.823,0-6c0-0.95,0.49-2.164,1.294-3.522C22.027,27.5,26.42,30,28,30C30,30,34,30,34,26z M58,26
			c0,0-2,4.001-8,4.001c-2,0-2-2.001-2-4.001c0,0,0-2-2-2s-4,2-6,4s-8,6-8,6h30v-3.999C62,26,58,26,58,26z"/>
	</g>
</g>
<g id="Sole">
	<g>
		<path style="fill:#CCCCCC;" d="M62,30c-2,0-4.6,4-30,4c-10,0-28-2-30-2s-2,0-2,2c0,4,0,6,7,6c6.729,0,20.547,0,25,0c6,0,32,0,32-8
			C64,32,64,30,62,30z"/>
	</g>
</g>
<g>
</g>
<g>
</g>
<g>
</g>
<g>
</g>
<g>
</g>
<g>
</g>
<g>
</g>
<g>
</g>
<g>
</g>
<g>
</g>
<g>
</g>
<g>
</g>
<g>
</g>
<g>
</g>
<g>
</g>
</svg>
