<?xml version="1.0" encoding="iso-8859-1"?>
<!-- Generator: Adobe Illustrator 16.0.0, SVG Export Plug-In . SVG Version: 6.00 Build 0)  -->
<!DOCTYPE svg PUBLIC "-//W3C//DTD SVG 1.1//EN" "http://www.w3.org/Graphics/SVG/1.1/DTD/svg11.dtd">
<svg version="1.1" id="Layer_1" xmlns="http://www.w3.org/2000/svg" xmlns:xlink="http://www.w3.org/1999/xlink" x="0px" y="0px"
	 width="64.003px" height="63.999px" viewBox="0 0 64.003 63.999" style="enable-background:new 0 0 64.003 63.999;"
	 xml:space="preserve">
<g id="Body_6_">
	<g>
		<path style="fill:#E6E6E6;" d="M60,0H4C1.791,0,0,1.79,0,4v55.999c0,2.21,1.791,4,4,4h56c2.209,0,4-1.79,4-4V4
			C64,1.79,62.209,0,60,0z"/>
	</g>
</g>
<g id="Holes">
	<g>
		<path style="fill-rule:evenodd;clip-rule:evenodd;fill:#CCCCCC;" d="M58,51.999c-1.104,0-2,0.896-2,2.001v3.999
			c0,1.104,0.896,2,2,2s2-0.896,2-2V54C60,52.895,59.104,51.999,58,51.999z M50,51.999c-1.105,0-2,0.896-2,2.001v3.999
			c0,1.104,0.895,2,2,2c1.104,0,2-0.896,2-2V54C52,52.895,51.104,51.999,50,51.999z"/>
	</g>
</g>
<g id="Viewer">
	<g>
		<path style="fill:#666666;" d="M14,13.999H6c-1.104,0-2,0.896-2,2.001c0,1.104,0.896,1.999,2,1.999h8c1.104,0,2-0.896,2-1.999
			C16,14.895,15.104,13.999,14,13.999z"/>
	</g>
</g>
<g id="Blitz">
	<g>
		<path style="fill:#AFC39E;" d="M58,4h-8c-1.105,0-2,0.895-2,1.999v8C48,15.104,48.895,16,50,16h8c1.104,0,2-0.896,2-2.001v-8
			C60,4.895,59.104,4,58,4z"/>
	</g>
</g>
<g id="Strip">
	<g>
		<rect x="0.001" y="25.999" style="fill:#ED7161;" width="64.002" height="4"/>
	</g>
</g>
<g id="Strip_3_">
	<g>
		<rect x="0.001" y="29.999" style="fill:#FFCC66;" width="64.002" height="4"/>
	</g>
</g>
<g id="Strip_2_">
	<g>
		<rect x="0.001" y="33.999" style="fill:#88C057;" width="64.002" height="4"/>
	</g>
</g>
<g id="Lens_6_">
	<g>
		<circle style="fill:#B3B3B3;" cx="32" cy="32" r="16"/>
	</g>
</g>
<g id="Lens_3_">
	<g>
		<circle style="fill:#666666;" cx="32" cy="32" r="12"/>
	</g>
</g>
<g id="Lens_4_">
	<g>
		<circle style="fill:#333333;" cx="32" cy="32" r="4"/>
	</g>
</g>
<g>
</g>
<g>
</g>
<g>
</g>
<g>
</g>
<g>
</g>
<g>
</g>
<g>
</g>
<g>
</g>
<g>
</g>
<g>
</g>
<g>
</g>
<g>
</g>
<g>
</g>
<g>
</g>
<g>
</g>
</svg>
