<?xml version="1.0" encoding="iso-8859-1"?>
<!-- Generator: Adobe Illustrator 16.0.0, SVG Export Plug-In . SVG Version: 6.00 Build 0)  -->
<!DOCTYPE svg PUBLIC "-//W3C//DTD SVG 1.1//EN" "http://www.w3.org/Graphics/SVG/1.1/DTD/svg11.dtd">
<svg version="1.1" id="Layer_1" xmlns="http://www.w3.org/2000/svg" xmlns:xlink="http://www.w3.org/1999/xlink" x="0px" y="0px"
	 width="54px" height="64px" viewBox="0 0 54 64" style="enable-background:new 0 0 54 64;" xml:space="preserve">
<g id="Smoke">
	<g>
		<path style="fill-rule:evenodd;clip-rule:evenodd;fill:#FFCC66;" d="M33,8c-1.225,0-2.33,0.457-3.199,1.188
			C29.918,8.81,30,8.416,30,8c0-2.209-1.791-4-4-4c-0.797,0-1.536,0.239-2.16,0.642C23.224,1.982,20.846,0,18,0
			c-2.263,0-4.231,1.254-5.254,3.104C12.029,2.424,11.066,2,10,2C7.791,2,6,3.79,6,6c0,2.209,1.791,4,4,4
			c1.066,0,2.029-0.424,2.746-1.104c0.086,0.155,0.178,0.309,0.277,0.455C12.395,10.059,12,10.979,12,12c0,2.209,1.791,4,4,4
			c0.943,0,1.799-0.341,2.483-0.887C19.281,16.814,20.996,18,23,18c2.762,0,5-2.238,5-5c0-0.5-0.096-0.974-0.232-1.429
			c0.199-0.099,0.391-0.208,0.569-0.338C28.128,11.785,28,12.376,28,13c0,2.762,2.238,5,5,5s5-2.238,5-5S35.762,8,33,8z M2,8
			c-1.104,0-2,0.896-2,2s0.896,2,2,2s2-0.896,2-2S3.104,8,2,8z"/>
	</g>
</g>
<g id="Plant">
	<g>
		<path style="fill:#CCCCCC;" d="M42.143,22v-2H28H13.857v2c0,0,1.178,22.5-7.857,34h22h22C40.964,44.5,42.143,22,42.143,22z"/>
	</g>
</g>
<g id="Plant_3_">
	<g>
		<path style="fill:#B3B3B3;" d="M50,56H6c-2.209,0-4,1.791-4,4s1.791,4,4,4h44c2.209,0,4-1.791,4-4S52.209,56,50,56z"/>
	</g>
</g>
<g id="Plant_2_">
	<g>
		<path style="fill:#B3B3B3;" d="M42,14H14c-2.209,0-4,1.79-4,4c0,2.209,1.791,4,4,4h28c2.209,0,4-1.791,4-4
			C46,15.79,44.209,14,42,14z"/>
	</g>
</g>
<g>
</g>
<g>
</g>
<g>
</g>
<g>
</g>
<g>
</g>
<g>
</g>
<g>
</g>
<g>
</g>
<g>
</g>
<g>
</g>
<g>
</g>
<g>
</g>
<g>
</g>
<g>
</g>
<g>
</g>
</svg>
