<?xml version="1.0" encoding="iso-8859-1"?>
<!-- Generator: Adobe Illustrator 16.0.0, SVG Export Plug-In . SVG Version: 6.00 Build 0)  -->
<!DOCTYPE svg PUBLIC "-//W3C//DTD SVG 1.1//EN" "http://www.w3.org/Graphics/SVG/1.1/DTD/svg11.dtd">
<svg version="1.1" id="Layer_1" xmlns="http://www.w3.org/2000/svg" xmlns:xlink="http://www.w3.org/1999/xlink" x="0px" y="0px"
	 width="64.009px" height="38px" viewBox="0 0 64.009 38" style="enable-background:new 0 0 64.009 38;" xml:space="preserve">
<g id="Body_9_">
	<g>
		<path style="fill-rule:evenodd;clip-rule:evenodd;fill:#4D4D4D;" d="M64.009,31.973l-0.004-0.052
			c-0.003-0.245-0.024-0.485-0.056-0.722L62.009,6l-12-2h-36l-12,2L0.082,31.024c-0.499,3.009,1.359,5.963,4.366,6.77
			c3.009,0.806,6.095-0.824,7.167-3.681L18.009,26h28l6.388,8.107c0.854,2.271,3.041,3.892,5.612,3.892c3.313,0,6-2.687,6-5.999
			c0-0.009-0.001-0.018-0.001-0.027H64.009z"/>
	</g>
</g>
<g id="Touch_Pad">
	<g>
		<path style="fill-rule:evenodd;clip-rule:evenodd;fill:#1A1A1A;" d="M24.009,10c0,2.209,1.791,4,4,4h8c2.209,0,4-1.791,4-4V4h-16
			V10z"/>
	</g>
</g>
<g id="Side_BTNs">
	<g>
		<path style="fill-rule:evenodd;clip-rule:evenodd;fill:#4D4D4D;" d="M12.009,0h-4c-2.209,0-4,1.791-4,4v4c0,2.209,1.791,4,4,4h4
			c2.209,0,4-1.791,4-4V4C16.009,1.791,14.218,0,12.009,0z M56.009,0h-4c-2.209,0-4,1.791-4,4v4c0,2.209,1.791,4,4,4h4
			c2.209,0,4-1.791,4-4V4C60.009,1.791,58.218,0,56.009,0z"/>
	</g>
</g>
<g id="BTN">
	<g>
		<circle style="fill:#808080;" cx="32.009" cy="18" r="2"/>
	</g>
</g>
<g id="Shapes">
	<g>
		<path style="fill-rule:evenodd;clip-rule:evenodd;fill:#666666;" d="M22.009,14c-4.419,0-8,3.581-8,8c0,4.418,3.581,7.999,8,7.999
			c4.418,0,8-3.581,8-7.999C30.009,17.581,26.427,14,22.009,14z M42.009,14c-4.419,0-8,3.581-8,8c0,4.418,3.581,7.999,8,7.999
			c4.418,0,8-3.581,8-7.999C50.009,17.581,46.427,14,42.009,14z"/>
	</g>
</g>
<g id="Controllers">
	<g>
		<path style="fill-rule:evenodd;clip-rule:evenodd;fill:#B4B4B4;" d="M42.009,17.999c-2.21,0-4,1.791-4,4.001c0,2.209,1.79,4,4,4
			c2.209,0,4-1.791,4-4C46.009,19.79,44.218,17.999,42.009,17.999z M22.009,17.999c-2.209,0-4,1.791-4,4.001c0,2.209,1.791,4,4,4
			s4-1.791,4-4C26.009,19.79,24.218,17.999,22.009,17.999z"/>
	</g>
</g>
<g id="Shape_1_">
	<g>
		<path style="fill-rule:evenodd;clip-rule:evenodd;fill:#333333;" d="M10.009,2c-5.523,0-10,4.477-10,10c0,5.522,4.477,10,10,10
			c5.522,0,10-4.478,10-10C20.009,6.477,15.531,2,10.009,2z M54.009,2c-5.523,0-10,4.477-10,10c0,5.522,4.477,10,10,10
			c5.522,0,10-4.478,10-10C64.009,6.477,59.531,2,54.009,2z"/>
	</g>
</g>
<g id="BTNs_1_">
	<g>
		<path style="fill-rule:evenodd;clip-rule:evenodd;fill:#CCCCCC;" d="M10.009,10c1.104,0,2-0.896,2-2s-0.896-2-2-2
			c-1.105,0-2,0.896-2,2S8.903,10,10.009,10z M6.009,10c-1.104,0-2,0.896-2,2s0.896,2,2,2s2-0.896,2-2S7.113,10,6.009,10z
			 M14.009,10c-1.105,0-2,0.896-2,2s0.895,2,2,2c1.104,0,2-0.896,2-2S15.113,10,14.009,10z M10.009,14c-1.105,0-2,0.896-2,2
			s0.895,1.999,2,1.999c1.104,0,2-0.895,2-1.999S11.113,14,10.009,14z M54.009,10c1.104,0,2-0.896,2-2s-0.896-2-2-2s-2,0.896-2,2
			S52.904,10,54.009,10z M50.009,10c-1.105,0-2,0.896-2,2s0.895,2,2,2c1.104,0,2-0.896,2-2S51.113,10,50.009,10z M58.009,10
			c-1.104,0-2,0.896-2,2s0.896,2,2,2s2-0.896,2-2S59.113,10,58.009,10z M54.009,14c-1.104,0-2,0.896-2,2s0.896,1.999,2,1.999
			s2-0.895,2-1.999S55.113,14,54.009,14z"/>
	</g>
</g>
<g>
</g>
<g>
</g>
<g>
</g>
<g>
</g>
<g>
</g>
<g>
</g>
<g>
</g>
<g>
</g>
<g>
</g>
<g>
</g>
<g>
</g>
<g>
</g>
<g>
</g>
<g>
</g>
<g>
</g>
</svg>
