<?xml version="1.0" encoding="iso-8859-1"?>
<!-- Generator: Adobe Illustrator 16.0.0, SVG Export Plug-In . SVG Version: 6.00 Build 0)  -->
<!DOCTYPE svg PUBLIC "-//W3C//DTD SVG 1.1//EN" "http://www.w3.org/Graphics/SVG/1.1/DTD/svg11.dtd">
<svg version="1.1" id="Layer_1" xmlns="http://www.w3.org/2000/svg" xmlns:xlink="http://www.w3.org/1999/xlink" x="0px" y="0px"
	 width="68px" height="56px" viewBox="0 0 68 56" style="enable-background:new 0 0 68 56;" xml:space="preserve">
<g id="Box">
	<g>
		<path style="fill:#FFCC66;" d="M60,8H4c-2.209,0-4,1.791-4,4v40c0,2.209,1.791,4,4,4h56c2.209,0,4-1.791,4-4V12
			C64,9.791,62.209,8,60,8z"/>
	</g>
</g>
<g id="Speakers">
	<g>
		<path style="fill-rule:evenodd;clip-rule:evenodd;fill:#CCA352;" d="M25.729,18H38v-4h-6.674C29.233,15.01,27.338,16.36,25.729,18
			z M20.918,26H38v-4H22.697C21.97,23.256,21.361,24.59,20.918,26z M48.674,14H42v4h12.271C52.662,16.36,50.767,15.01,48.674,14z
			 M20,32c0,0.675,0.036,1.342,0.101,2H38v-4H20.101C20.036,30.658,20,31.325,20,32z M57.303,22H42v4h17.082
			C58.639,24.59,58.03,23.256,57.303,22z M42,42h15.302c0.728-1.256,1.336-2.59,1.779-4H42V42z M22.698,42H38v-4H20.918
			C21.361,39.41,21.97,40.744,22.698,42z M59.899,30H42v4h17.899C59.964,33.342,60,32.675,60,32S59.964,30.658,59.899,30z M42,50
			h6.674c2.092-1.01,3.988-2.36,5.597-4H42V50z M31.326,50H38v-4H25.729C27.338,47.64,29.234,48.99,31.326,50z"/>
	</g>
</g>
<g id="Signal">
	<g>
		<path style="fill:#FFFFFF;" d="M14,12H6c-1.104,0-2,0.896-2,2v36c0,1.104,0.896,2,2,2h8c1.104,0,2-0.896,2-2V14
			C16,12.896,15.104,12,14,12z"/>
	</g>
</g>
<g id="Signal_Bar">
	<g>
		<path style="fill-rule:evenodd;clip-rule:evenodd;fill:#ED7161;" d="M14,38h-4c-1.104,0-2,0.896-2,2s0.896,2,2,2h4h2v-4H14z"/>
	</g>
</g>
<g id="Antena_Body">
	<g>
		<rect x="8" y="4" style="fill:#CCCCCC;" width="4" height="4"/>
	</g>
</g>
<g id="Antena_Head">
	<g>
		<path style="fill:#B3B3B3;" d="M12,0H8C6.896,0,6,0.896,6,2s0.896,2,2,2h4c1.104,0,2-0.896,2-2S13.104,0,12,0z"/>
	</g>
</g>
<g>
</g>
<g>
</g>
<g>
</g>
<g>
</g>
<g>
</g>
<g>
</g>
<g>
</g>
<g>
</g>
<g>
</g>
<g>
</g>
<g>
</g>
<g>
</g>
<g>
</g>
<g>
</g>
<g>
</g>
</svg>
