<?xml version="1.0" encoding="iso-8859-1"?>
<!-- Generator: Adobe Illustrator 16.0.0, SVG Export Plug-In . SVG Version: 6.00 Build 0)  -->
<!DOCTYPE svg PUBLIC "-//W3C//DTD SVG 1.1//EN" "http://www.w3.org/Graphics/SVG/1.1/DTD/svg11.dtd">
<svg version="1.1" id="Layer_1" xmlns="http://www.w3.org/2000/svg" xmlns:xlink="http://www.w3.org/1999/xlink" x="0px" y="0px"
	 width="64px" height="64.001px" viewBox="0 0 64 64.001" style="enable-background:new 0 0 64 64.001;" xml:space="preserve">
<g id="Body_8_">
	<g>
		<path style="fill:#FFCC66;" d="M50,26.001c0,0-4-2-4-4c0-4,4-2,8-8C54,14.001,52,0,38,0C26,0,22,10.001,22,16.001c0,10,6,10,6,16
			c0,2-2,4-8,4c-10,0-14-10-14-10s-6,4-6,14c0,12,8,24,26,24h10c6,0,18-8,18-18s-6-10-6-14S50,26.001,50,26.001z"/>
	</g>
</g>
<g id="Beak">
	<g>
		<path style="fill:#FF8833;" d="M60,16.001c-4,0-6-2-6-2c-4,6-8,4-8,8c0,2,4,4,4,4c4,0,14-6,14-8S62,16.001,60,16.001z"/>
	</g>
</g>
<g id="Eye">
	<g>
		<circle style="fill:#666666;" cx="48" cy="12.001" r="2"/>
	</g>
</g>
<g>
</g>
<g>
</g>
<g>
</g>
<g>
</g>
<g>
</g>
<g>
</g>
<g>
</g>
<g>
</g>
<g>
</g>
<g>
</g>
<g>
</g>
<g>
</g>
<g>
</g>
<g>
</g>
<g>
</g>
</svg>
