<?xml version="1.0" encoding="iso-8859-1"?>
<!-- Generator: Adobe Illustrator 16.0.0, SVG Export Plug-In . SVG Version: 6.00 Build 0)  -->
<!DOCTYPE svg PUBLIC "-//W3C//DTD SVG 1.1//EN" "http://www.w3.org/Graphics/SVG/1.1/DTD/svg11.dtd">
<svg version="1.1" id="Layer_1" xmlns="http://www.w3.org/2000/svg" xmlns:xlink="http://www.w3.org/1999/xlink" x="0px" y="0px"
	 width="64.015px" height="64.016px" viewBox="0 0 64.015 64.016" style="enable-background:new 0 0 64.015 64.016;"
	 xml:space="preserve">
<g id="Sharpner">
	<g>
		<path style="fill:#ED7161;" d="M62.828,22.695L41.321,1.188c-1.584-1.583-4.151-1.583-5.734,0l-9.686,9.686
			c0.031,0.385,0.115,0.752,0.115,1.145c0,7.731-6.269,13.999-14,13.999c-0.392,0-0.76-0.083-1.144-0.115l-9.685,9.686
			c-1.584,1.584-1.584,4.151,0,5.734l21.507,21.507c1.583,1.584,4.15,1.584,5.734,0l9.699-9.699c-0.03-0.373-0.112-0.73-0.112-1.111
			c0-7.732,6.268-14,14-14c0.381,0,0.738,0.082,1.112,0.111l9.699-9.699C64.411,26.846,64.411,24.279,62.828,22.695z"/>
	</g>
</g>
<g id="Dent">
	<g>
		<path style="fill:#A14D42;" d="M47.087,16.945c-3.905-3.904-10.237-3.904-14.143,0L6.878,43.012l14.143,14.143l26.066-26.066
			C50.993,27.183,50.993,20.852,47.087,16.945z"/>
	</g>
</g>
<g id="Blade">
	<g>
		<path style="fill:#E6E6E6;" d="M47.087,16.945c-3.905-3.904-10.237-3.904-14.143,0L4.878,45.013l9.071,9.071l34.815-34.815
			C48.316,18.44,47.787,17.646,47.087,16.945z"/>
	</g>
</g>
<g id="Sharp">
	<g>
		<path style="fill:#FFFFFF;" d="M47.087,16.945L11.95,52.083l2,2.001l34.815-34.815C48.316,18.44,47.787,17.646,47.087,16.945z"/>
	</g>
</g>
<g id="Screw">
	<g>
		<circle style="fill:#999999;" cx="26.016" cy="32.018" r="2"/>
	</g>
</g>
<g>
</g>
<g>
</g>
<g>
</g>
<g>
</g>
<g>
</g>
<g>
</g>
<g>
</g>
<g>
</g>
<g>
</g>
<g>
</g>
<g>
</g>
<g>
</g>
<g>
</g>
<g>
</g>
<g>
</g>
</svg>
