<?xml version="1.0" encoding="iso-8859-1"?>
<!-- Generator: Adobe Illustrator 16.0.0, SVG Export Plug-In . SVG Version: 6.00 Build 0)  -->
<!DOCTYPE svg PUBLIC "-//W3C//DTD SVG 1.1//EN" "http://www.w3.org/Graphics/SVG/1.1/DTD/svg11.dtd">
<svg version="1.1" id="Layer_1" xmlns="http://www.w3.org/2000/svg" xmlns:xlink="http://www.w3.org/1999/xlink" x="0px" y="0px"
	 width="64px" height="63.999px" viewBox="0 0 64 63.999" style="enable-background:new 0 0 64 63.999;" xml:space="preserve">
<g id="Earpiece">
	<g>
		<path style="fill-rule:evenodd;clip-rule:evenodd;fill:#333333;" d="M62,8c-1.111,0-5.924,1.234-10.669,3.017
			C55.313,6.827,58,3.999,58,3.999L54,0c0,0-14.5,16.111-25.606,28.395C16.109,39.501,0,54,0,54l4,3.999
			c0,0,2.828-2.687,7.018-6.668C9.234,56.076,8,60.889,8,62c0,1.999,2,1.999,4,1.999s4-16,6-18
			c0.755-0.755,6.643-6.927,13.678-14.317C39.07,24.645,45.245,18.755,46,18c2-2.001,18-4,18-6.001C64,10,64,8,62,8z"/>
	</g>
</g>
<g id="Frame_1_">
	<g>
		<path style="fill-rule:evenodd;clip-rule:evenodd;fill:#333333;" d="M58,8c-1.383-1.383-1.182-2.819,0-4.001L54,0
			c0,0-8,3.999-14,10c-6,5.999-8,13.999-12,18c-4,3.999-12,6-18,11.999C4,45.999,0,54,0,54l4,3.999c1.181-1.181,2.617-1.382,4,0
			c4,4.001,8,6,12,6c6,0,16-9.999,16-16c0-8-6-13.999-4-16C34,30,40,36,48,36c6,0,16-10,16-16C64,15.999,62,11.999,58,8z"/>
	</g>
</g>
<g id="Lens_5_">
	<g>
		<path style="fill-rule:evenodd;clip-rule:evenodd;fill:#808080;" d="M24,36c-6,0-16,9.999-16,13.999c0,4.001,6,10,12,10
			c4,0,12-5.999,12-12C32,39.999,28,36,24,36z M50,8c-4,0-14,10-14,15.999c0,4.001,4,8,12,8c6,0,12-8,12-11.999C60,14,54,8,50,8z"/>
	</g>
</g>
<g id="Earpiece_1_">
	<g>
		<path style="fill-rule:evenodd;clip-rule:evenodd;fill:#666666;" d="M54.516,9.901c-1.045,0.342-2.128,0.718-3.21,1.125
			c0.68-0.714,1.318-1.384,1.915-2.01C52.105,8.37,50.991,8,50,8c-1.813,0-4.859,2.059-7.649,4.865
			c-0.675,0.745-1.364,1.507-2.066,2.281C37.854,18.094,36,21.417,36,23.999c0,0.979,0.243,1.958,0.723,2.878
			C41.715,22.12,45.426,18.574,46,18c1.211-1.212,7.554-2.423,12.371-3.634C57.36,12.589,55.981,11.034,54.516,9.901z
			 M15.837,39.731c-1.195,1.078-2.365,2.133-3.495,3.152C9.807,45.52,8,48.3,8,49.999c0,0.994,0.372,2.111,1.021,3.229
			c0.28-0.266,0.557-0.529,0.854-0.812c-0.147,0.5-0.286,1-0.417,1.494c1.045,1.533,2.577,3.014,4.366,4.134
			c0.566-4.073,1.06-8.929,2.176-10.046c0.633-0.632,5.063-5.263,10.827-11.3C25.921,36.237,24.961,36,24,36
			C21.617,36,18.604,37.579,15.837,39.731z"/>
	</g>
</g>
<g>
</g>
<g>
</g>
<g>
</g>
<g>
</g>
<g>
</g>
<g>
</g>
<g>
</g>
<g>
</g>
<g>
</g>
<g>
</g>
<g>
</g>
<g>
</g>
<g>
</g>
<g>
</g>
<g>
</g>
</svg>
