<?xml version="1.0" encoding="iso-8859-1"?>
<!-- Generator: Adobe Illustrator 16.0.0, SVG Export Plug-In . SVG Version: 6.00 Build 0)  -->
<!DOCTYPE svg PUBLIC "-//W3C//DTD SVG 1.1//EN" "http://www.w3.org/Graphics/SVG/1.1/DTD/svg11.dtd">
<svg version="1.1" id="Layer_1" xmlns="http://www.w3.org/2000/svg" xmlns:xlink="http://www.w3.org/1999/xlink" x="0px" y="0px"
	 width="56px" height="64px" viewBox="0 0 56 64" style="enable-background:new 0 0 56 64;" xml:space="preserve">
<g id="Hair">
	<g>
		<path style="fill:#A67C52;" d="M28,0C16.91,0,12,6,12,16v28h32V16C44,6,37.457,0,28,0z"/>
	</g>
</g>
<g id="Neck">
	<g>
		<polygon style="fill:#DBB59A;" points="32,30.001 24,30.001 22,38.001 22,64 34,64 34,38.001 		"/>
	</g>
</g>
<g id="Suit">
	<g>
		<path style="fill:#48A0DC;" d="M52,48c-1.881-1.88-16-8-16-8l-8,24h28C56,64,55.76,51.76,52,48z M4,48c-3.761,3.76-4,16-4,16h28
			l-8-24C20,40,5.88,46.12,4,48z"/>
	</g>
</g>
<g id="Collar">
	<g>
		<path style="fill:#FFFFFF;" d="M34,38.001L28,64h2l6-14l10-2L34,38.001z M10,48l10,2l6,14h2l-6-25.999L10,48z"/>
	</g>
</g>
<g id="Head_3_">
	<g>
		<path style="fill-rule:evenodd;clip-rule:evenodd;fill:#F6CBAD;" d="M33.503,11.965C31.938,15.428,26.538,18,20,18
			c0.009,0-1.977,0-3.971,0c0.088,3.917,0.451,6.961,1.971,10c2,4,6.081,8,10,8c3.918,0,8-4,10-8
			c1.772-3.544,1.974-7.095,1.996-12.031C39.957,13.689,35.655,11.965,33.503,11.965z"/>
	</g>
</g>
<g id="Headphones">
	<g>
		<path style="fill-rule:evenodd;clip-rule:evenodd;fill:#4D4D4D;" d="M45.589,13.041C43.841,6.731,36.635,2.001,28,2.001
			s-15.841,4.73-17.589,11.04C9.075,13.773,8,14.826,8,16.001v4c0,2.209,3.791,4,6,4v-8c0-5.523,6.268-10,14-10
			c7.731,0,14,4.477,14,10v4c0,4.287-2.703,7.934-6.494,9.355c-0.537-0.815-1.457-1.355-2.506-1.355h-4c-1.657,0-3,1.343-3,3
			c0,1.656,1.343,3,3,3h4c0.295,0,0.574-0.056,0.843-0.135c5.897-0.778,10.64-5.214,11.853-10.963
			C46.981,22.173,48,21.145,48,20.001v-4C48,14.826,46.925,13.773,45.589,13.041z"/>
	</g>
</g>
<g>
</g>
<g>
</g>
<g>
</g>
<g>
</g>
<g>
</g>
<g>
</g>
<g>
</g>
<g>
</g>
<g>
</g>
<g>
</g>
<g>
</g>
<g>
</g>
<g>
</g>
<g>
</g>
<g>
</g>
</svg>
