<?xml version="1.0" encoding="iso-8859-1"?>
<!-- Generator: Adobe Illustrator 16.0.0, SVG Export Plug-In . SVG Version: 6.00 Build 0)  -->
<!DOCTYPE svg PUBLIC "-//W3C//DTD SVG 1.1//EN" "http://www.w3.org/Graphics/SVG/1.1/DTD/svg11.dtd">
<svg version="1.1" id="Layer_1" xmlns="http://www.w3.org/2000/svg" xmlns:xlink="http://www.w3.org/1999/xlink" x="0px" y="0px"
	 width="64px" height="74px" viewBox="0 0 64 74" style="enable-background:new 0 0 64 74;" xml:space="preserve">
<g id="Stick">
	<g>
		<path style="fill:#808080;" d="M32,0c-1.105,0-2,0.895-2,2v52c0,3.313-2.687,6-6,6c-3.314,0-6-2.687-6-6c0-1.104-0.896-2-2-2
			s-2,0.896-2,2c0,5.522,4.477,9.999,10,9.999c5.522,0,10-4.477,10-9.999V2C34,0.895,33.104,0,32,0z"/>
	</g>
</g>
<g id="Umbrella">
	<g>
		<path style="fill-rule:evenodd;clip-rule:evenodd;fill:#88C057;" d="M54,30c5.522,0,10,2.686,10,6C64,18.326,49.673,4,32,4
			C14.326,4,0,18.326,0,36c0-3.314,4.477-6,10-6c5.522,0,10,2.686,10,6c0-3.314,5.372-6,12-6c6.627,0,12,2.686,12,6
			C44,32.686,48.477,30,54,30z"/>
	</g>
</g>
<g id="Umbrella_1_">
	<g>
		<path style="fill-rule:evenodd;clip-rule:evenodd;fill:#75A64B;" d="M32,30c6.627,0,12,2.686,12,6c0-17.674-5.373-32-12-32
			c-6.628,0-12,14.326-12,32C20,32.686,25.372,30,32,30z"/>
	</g>
</g>
<g>
</g>
<g>
</g>
<g>
</g>
<g>
</g>
<g>
</g>
<g>
</g>
<g>
</g>
<g>
</g>
<g>
</g>
<g>
</g>
<g>
</g>
<g>
</g>
<g>
</g>
<g>
</g>
<g>
</g>
</svg>
