<?xml version="1.0" encoding="iso-8859-1"?>
<!-- Generator: Adobe Illustrator 16.0.0, SVG Export Plug-In . SVG Version: 6.00 Build 0)  -->
<!DOCTYPE svg PUBLIC "-//W3C//DTD SVG 1.1//EN" "http://www.w3.org/Graphics/SVG/1.1/DTD/svg11.dtd">
<svg version="1.1" id="Layer_1" xmlns="http://www.w3.org/2000/svg" xmlns:xlink="http://www.w3.org/1999/xlink" x="0px" y="0px"
	 width="64px" height="67.933px" viewBox="0 0 64 67.933" style="enable-background:new 0 0 64 67.933;" xml:space="preserve">
<g id="Henge">
	<g>
		<path style="fill-rule:evenodd;clip-rule:evenodd;fill:#CCCCCC;" d="M62,27.972h-8c-1.104,0-2,0.896-2,1.999s0.896,1.997,2,1.997
			h8c1.104,0,2-0.894,2-1.997S63.104,27.972,62,27.972z M54,11.988h8c1.104,0,2-0.895,2-1.998s-0.896-1.999-2-1.999h-8
			c-1.104,0-2,0.896-2,1.999S52.896,11.988,54,11.988z"/>
	</g>
</g>
<g id="Pole_1_">
	<g>
		<path style="fill:#808080;" d="M62,3.996c-1.104,0-2,0.895-2,1.998v59.941c0,1.104,0.896,1.997,2,1.997s2-0.894,2-1.997V5.994
			C64,4.891,63.104,3.996,62,3.996z"/>
	</g>
</g>
<g id="Tube">
	<g>
		<path style="fill:#ED7161;" d="M52,3.996L4,7.991c-2.209,0-4,1.789-4,3.997v15.983c0,2.207,1.791,3.996,4,3.996l48,3.997
			c2.209,0,4-1.789,4-3.997V7.991C56,5.785,54.209,3.996,52,3.996z"/>
	</g>
</g>
<g id="Stripes_2_">
	<g>
		<path style="fill-rule:evenodd;clip-rule:evenodd;fill:#CCCCCC;" d="M36,5.328v29.305l16,1.332V3.996L36,5.328z M4,31.968L20,33.3
			V6.659L4,7.991V31.968z"/>
	</g>
</g>
<g>
</g>
<g>
</g>
<g>
</g>
<g>
</g>
<g>
</g>
<g>
</g>
<g>
</g>
<g>
</g>
<g>
</g>
<g>
</g>
<g>
</g>
<g>
</g>
<g>
</g>
<g>
</g>
<g>
</g>
</svg>
